<svg id="Layer_1" data-name="Layer 1" xmlns="http://www.w3.org/2000/svg" viewBox="0 0 36.57 4.86"><defs><style>.cls-1{fill:#b14ba4;}.cls-1,.cls-2{opacity:0.65;}.cls-2{fill:#993c8d;}</style></defs><path class="cls-1" d="M6.43,28c.14-.51.65-.55,1-.74A4.36,4.36,0,0,1,9.62,27a6.85,6.85,0,0,0,2.28-.45,6,6,0,0,1,1.7-.06c.23,0,.44.05.5-.31s.29-.41.63-.46a4.27,4.27,0,0,0,2.61-1,1.94,1.94,0,0,1,1.3-.48,18.1,18.1,0,0,1,3,0c.87.15,1.89.05,2.55.85a.33.33,0,0,0,.27.12,15.54,15.54,0,0,1,2.94.7,10.76,10.76,0,0,0,3,.62,2.81,2.81,0,0,1,2.22.81c.35.36.84.13,1.26.15s.67.11.79.51a6.61,6.61,0,0,1-.89,0c-1-.12-2,.38-2.87-.48a.25.25,0,0,0-.13,0A9,9,0,0,1,29,27.27c-.85-.2-1.76,0-2.66-.26-1.17-.29-2.34.2-3.52.28a.9.9,0,0,0,0,.13c.43.17.94-.07,1.38.16a.28.28,0,0,1-.31.15,6,6,0,0,0-1.64,0,2.94,2.94,0,0,1-2.29,0,.43.43,0,0,0-.48.07c-.21.22-.47.15-.71.17-1.11.08-2.17-.39-3.3-.27-.84.08-1.69,0-2.54,0a1.17,1.17,0,0,1-.5-.05,4.81,4.81,0,0,0-2.73-.15C8.6,27.66,7.57,28.22,6.43,28Zm23.74-.89a1.33,1.33,0,0,0,1.24,0A2,2,0,0,0,30.17,27.09Z" transform="translate(-2.13 -24.14)"/><path class="cls-2" d="M6.43,28c1.14.24,2.17-.32,3.25-.45a4.81,4.81,0,0,1,2.73.15,1.17,1.17,0,0,0,.5.05c.85,0,1.7.07,2.54,0,1.13-.12,2.19.35,3.3.27.24,0,.5.05.71-.17a.43.43,0,0,1,.48-.07,2.94,2.94,0,0,0,2.29,0,6,6,0,0,1,1.64,0,.28.28,0,0,0,.31-.15c-.44-.23-.95,0-1.38-.16a.9.9,0,0,1,0-.13c1.18-.08,2.35-.57,3.52-.28.9.22,1.81.06,2.66.26a9,9,0,0,0,1.78.21.25.25,0,0,1,.13,0c.84.86,1.91.36,2.87.48a6.61,6.61,0,0,0,.89,0,6.46,6.46,0,0,1,1.83.45,1.69,1.69,0,0,0,.81.05A1.83,1.83,0,0,1,38.7,29c-.19,0-.39,0-.58,0H2.32c-.17,0-.19-.11-.19-.25s.05-.27.21-.24c.84.17,1.59-.39,2.43-.26A3.63,3.63,0,0,0,6.43,28Z" transform="translate(-2.13 -24.14)"/><path class="cls-2" d="M30.17,27.09a2,2,0,0,1,1.24,0A1.33,1.33,0,0,1,30.17,27.09Z" transform="translate(-2.13 -24.14)"/></svg>